<?xml version="1.0" encoding="utf-8"?>
<!-- Generator: Adobe Illustrator 22.1.0, SVG Export Plug-In . SVG Version: 6.00 Build 0)  -->
<svg version="1.1" id="Camada_1" xmlns="http://www.w3.org/2000/svg" xmlns:xlink="http://www.w3.org/1999/xlink" x="0px" y="0px"
	 viewBox="0 0 24 24" style="enable-background:new 0 0 24 24;" xml:space="preserve">
<path d="M15,11.2c-1.2,0-2.1-1-2.1-2.1s1-2.1,2.1-2.1s2.1,1,2.1,2.1S16.2,11.2,15,11.2 M15,3.1c-3.3,0-6,2.7-6,6
	c0,4.5,6,11.1,6,11.1s6-6.6,6-11.1C21,5.7,18.3,3.1,15,3.1z"/>
<path d="M8,20v2h6.4c-0.9-1.1-2.8-3.4-4.3-6H3V4h6.2c0.7-0.8,1.6-1.5,2.6-2H3C1.9,2,1,2.9,1,4v12c0,1.1,0.9,2,2,2h7v2H8z"/>
<path d="M5,6v5h2.8c-0.2-0.8-0.3-1.5-0.3-2.2c0-1,0.2-1.9,0.5-2.8H5z"/>
<path d="M5,14h4c-0.3-0.7-0.6-1.3-0.9-2H5V14z"/>
<path d="M21,2h-2.8c1,0.5,1.9,1.2,2.6,2H21v0.3c0.9,1.3,1.5,2.8,1.5,4.5c0,1.6-0.6,3.4-1.5,5.2v2h-1.1c-0.4,0.7-0.8,1.4-1.3,2H21
	c1.1,0,2-0.9,2-2V4C23,2.9,22.1,2,21,2z"/>
</svg>
