<svg id="bold" enable-background="new 0 0 24 24" height="512" viewBox="0 0 24 24" width="512" xmlns="http://www.w3.org/2000/svg"><path d="m18 4.29v-1.29c0-1.65-1.35-3-3-3h-10c-1.65 0-3 1.35-3 3v18c0 1.65 1.35 3 3 3h10c1.65 0 3-1.35 3-3v-5.29l-.56-.16c-.4.46-.88.83-1.44 1.08v4.37c0 .55-.45 1-1 1h-10c-.55 0-1-.45-1-1v-18c0-.55.45-1 1-1h.5c.55 0 1 .45 1 1s.45 1 1 1h5c.55 0 1-.45 1-1s.45-1 1-1h.5c.55 0 1 .45 1 1v1.86z"/><path d="m14.25 15.025c-1.24 0-2.25-1.009-2.25-2.25 0-.788.415-1.52 1.083-1.908.358-.208.817-.086 1.025.271.208.358.087.817-.271 1.025-.211.123-.337.351-.337.611 0 .414.337.75.75.75s.75-.336.75-.749c0-.107-.021-.199-.063-.279-.193-.366-.054-.82.312-1.014.365-.195.819-.054 1.014.312.157.298.237.628.237.981 0 1.241-1.01 2.25-2.25 2.25z"/><path d="m21.25 14.549c-.07 0-.142-.01-.211-.03l-10.5-3.074c-.319-.094-.539-.387-.539-.72v-1.5c0-.335.222-.629.544-.721l10.5-3c.225-.063.471-.02.657.123.189.141.299.363.299.598v7.574c0 .236-.111.458-.301.6-.131.099-.289.15-.449.15z"/><path d="m21.25 14.975c-.414 0-.75-.336-.75-.75v-8.5c0-.414.336-.75.75-.75s.75.336.75.75v8.5c0 .414-.336.75-.75.75z"/><path d="m10.75 11.975c-.414 0-.75-.336-.75-.75v-2.5c0-.414.336-.75.75-.75s.75.336.75.75v2.5c0 .414-.336.75-.75.75z"/></svg>