<?xml version="1.0" encoding="utf-8"?>
<!-- Generator: Adobe Illustrator 22.1.0, SVG Export Plug-In . SVG Version: 6.00 Build 0)  -->
<svg version="1.1" id="Camada_1" xmlns="http://www.w3.org/2000/svg" xmlns:xlink="http://www.w3.org/1999/xlink" x="0px" y="0px"
	 viewBox="0 0 512 512" style="enable-background:new 0 0 512 512;" xml:space="preserve">
<style type="text/css">
	.st0{fill: currentColor;}
</style>
<g>
	<path class="st0" d="M245.8,238.4c28.8-1.3,55.5,2.6,77.4,24.4c4.7,4.6,13.4,7,20.3,7.2c42.1,1.3,80.1,49.5,68.3,89.6
		c-10.5,35.9-22.5,71.4-35.5,106.4c-13.9,37.4-42.2,61.1-88.3,35.1c-13.6-7.7-34.5-6.1-51.3-3.6c-47.3,7-96.7-24.9-102.5-72.1
		c-3.8-30.9,9.9-57.6,36.4-75.2c22.3-14.8,28-33.8,19.5-58.2c-0.2-0.6-0.2-1.3-0.4-2c-7.7-35.6,3.2-49.7,39.7-51.4
		C234.9,238.1,240.3,238.4,245.8,238.4z"/>
	<path class="st0" d="M312.5,62c-1.4,21.3-11.1,44.9-15.6,67.5c-1.1,5.3,2.2,11.5,3.7,17.3c2.3,9.1,6,18.1,6.7,27.3
		c1.3,16.9-7.3,27.6-24.6,28.5c-17.2,0.8-21.7-12.9-23-25.8c-1-9.7,3.5-19.8,4.5-29.8c1.8-17.1,3.2-34.3,4-51.4
		c1.2-25.6,0.5-51.4,3.4-76.8c0.8-6.8,9.2-19.4,18-18.7c10,0.7,14.8,15.2,17.2,24.2C309.9,35.7,313.1,52.6,312.5,62z"/>
	<path class="st0" d="M438.4,72.8C437,79.4,436,89,433.1,98c-10.2,32.1-19.7,64.6-32.2,95.9c-5.2,13-15.3,25.4-26.2,34.3
		c-9.5,7.8-19.8,5-24-10.3c-4.6-16.6-3.9-30.8,9.1-43.2c21.1-20,29.6-44.2,28.8-73.4c-0.6-19.7,1.8-39.8,25.3-48.6
		C432.5,45.7,438.9,49.6,438.4,72.8z"/>
	<path class="st0" d="M148.2,32.9c3.2,3,10.1,7.1,13.1,13.1c4.7,9.5,9.7,20.5,9.4,30.7c-1.4,39.7,18.2,71.5,36.7,103.7
		c7.4,12.9,9.6,25.8-3.6,34c-6.7,4.2-21.7,4.8-26.5,0.3c-9.2-8.9-16.4-21.8-19.9-34.3c-7.2-26-10.9-52.9-17-79.2
		c-3.2-13.7-8.9-26.9-12.4-40.6C123.5,43.6,130.9,31.9,148.2,32.9z"/>
	<path class="st0" d="M29.9,269.8c34.2,0.6,62.2,28,60.5,58.9c-1.2,21.7-16.4,30.9-32.7,17.2c-18-15.1-33.6-33.6-47.9-52.3
		C1.3,282.5,13.1,269.5,29.9,269.8z"/>
	<path class="st0" d="M428.1,275.5c-4.3-0.3,16.8-20.1,18.3-31.6c1-7.8,16-50.2,32-71.1c7.7-10.1,23.6-3.5,25.8,9.6
		c0.7,4,1.5,8.9-0.2,12.1C490.3,219.8,431.9,275.8,428.1,275.5z"/>
</g>
</svg>
