<svg width="130" height="51" viewBox="0 0 130 51" fill="none" xmlns="http://www.w3.org/2000/svg">
<path d="M53.8388 30L31 50.5128H40.8064H108.575H115.96H122.96L109.878 32.8294H105.968L100.321 38.4881H97.2799L88.1572 40.6101L82.5099 38.4881L71.2152 36.7197L67.3055 33.8904L61.2237 32.8294L53.8388 30Z" fill="#EFD671"/>
<path fill-rule="evenodd" clip-rule="evenodd" d="M80.1722 50H10.9742L26.9714 18L45.8911 35.7447L55.1407 39.4415L63.9699 46.8352H75.7422L80.1722 50Z" fill="#F0BC37"/>
<path fill-rule="evenodd" clip-rule="evenodd" d="M1 49.0256V50H45.3692L36.7102 42.923L28.3078 47.5897H21.1658L13.6036 39.3333L1 49.0256ZM112.092 50H62.164L69.0595 47.5897L76.2016 49.0256L82.0833 47.5897L89.2253 42.923L98.8881 46.5127L103.089 45.0768L112.092 50Z" fill="#E1A219"/>
</svg>
