<svg width="130" height="50" viewBox="0 0 130 50" fill="none" xmlns="http://www.w3.org/2000/svg">
<path fill-rule="evenodd" clip-rule="evenodd" d="M130 50L130 40.9177L123.918 33.137H120.009L114.361 38.7957H111.32L102.198 40.9177L96.5503 38.7957L85.2557 37.0273L81.346 34.198L75.2642 33.137L67.8792 30.3076L45.9539 50H130Z" fill="#647F92"/>
<path fill-rule="evenodd" clip-rule="evenodd" d="M87.1722 50H17.9742L33.9714 18L52.8911 35.7447L62.1407 39.4415L70.9699 46.8352H82.7422L87.1722 50Z" fill="#475D7D"/>
<path fill-rule="evenodd" clip-rule="evenodd" d="M8 49.0256V50H52.3692L43.7102 42.923L35.3078 47.5897H28.1658L20.6036 39.3333L8 49.0256ZM119.092 50H69.164L76.0595 47.5897L83.2016 49.0256L89.0833 47.5897L96.2253 42.923L105.888 46.5127L110.089 45.0768L119.092 50Z" fill="#143548"/>
<circle cx="63" cy="17" r="1" fill="white"/>
<circle cx="93" cy="10" r="1" fill="white"/>
<circle cx="88.5" cy="21.5" r="0.5" fill="white"/>
<circle cx="82.5" cy="12.5" r="0.5" fill="white"/>
<circle cx="99.5" cy="16.5" r="0.5" fill="white"/>
<circle cx="107.5" cy="13.5" r="0.5" fill="white"/>
<circle cx="113.5" cy="20.5" r="0.5" fill="white"/>
<circle cx="107.5" cy="22.5" r="0.5" fill="white"/>
<circle cx="115.5" cy="12.5" r="0.5" fill="white"/>
<circle cx="121.5" cy="3.5" r="0.5" fill="white"/>
<circle cx="127.5" cy="10.5" r="0.5" fill="white"/>
<circle cx="121.5" cy="12.5" r="0.5" fill="white"/>
<circle cx="73.5" cy="20.5" r="0.5" fill="white"/>
<circle cx="24" cy="3" r="1" fill="white"/>
<circle cx="43.5" cy="5.5" r="0.5" fill="white"/>
<circle cx="47.5" cy="10.5" r="0.5" fill="white"/>
<circle cx="103.5" cy="4.5" r="0.5" fill="white"/>
<circle cx="55.5" cy="16.5" r="0.5" fill="white"/>
<circle cx="58.5" cy="6.5" r="0.5" fill="white"/>
<circle cx="66.5" cy="2.5" r="0.5" fill="white"/>
<circle cx="76.5" cy="6.5" r="0.5" fill="white"/>
<circle cx="68.5" cy="14.5" r="0.5" fill="white"/>
<circle cx="32.5" cy="9.5" r="0.5" fill="white"/>
</svg>
